HIERARCHY
ROOT Hips
{
	OFFSET -0.001795 -0.223333 0.028219
	CHANNELS 6 Xposition Yposition Zposition Zrotation Yrotation Xrotation 
	JOINT LeftUpLeg
	{
		OFFSET 0.069520 -0.091406 -0.006815
		CHANNELS 3 Zrotation Yrotation Xrotation
		JOINT LeftLeg
		{
			OFFSET 0.034277 -0.375199 -0.004496
			CHANNELS 3 Zrotation Yrotation Xrotation
			JOINT LeftFoot
			{
				OFFSET -0.013596 -0.397961 -0.043693
				CHANNELS 3 Zrotation Yrotation Xrotation
				JOINT LeftToe
				{
					OFFSET 0.026358 -0.055791 0.119288
					CHANNELS 3 Zrotation Yrotation Xrotation
					End Site
					{
						OFFSET 0.000000 0.000000 0.000000
					}
				}
			}
		}
	}
	JOINT RightUpLeg
	{
		OFFSET -0.067670 -0.090522 -0.004320
		CHANNELS 3 Zrotation Yrotation Xrotation
		JOINT RightLeg
		{
			OFFSET -0.038290 -0.382569 -0.008850
			CHANNELS 3 Zrotation Yrotation Xrotation
			JOINT RightFoot
			{
				OFFSET 0.015774 -0.398415 -0.042312
				CHANNELS 3 Zrotation Yrotation Xrotation
				JOINT RightToe
				{
					OFFSET -0.025372 -0.048144 0.123348
					CHANNELS 3 Zrotation Yrotation Xrotation
					End Site
					{
						OFFSET 0.000000 0.000000 0.000000
					}
				}
			}
		}
	}
	JOINT Spine
	{
		OFFSET -0.002533 0.108963 -0.026696
		CHANNELS 3 Zrotation Yrotation Xrotation
		JOINT Spine1
		{
			OFFSET 0.005487 0.135180 0.001092
			CHANNELS 3 Zrotation Yrotation Xrotation
			JOINT Spine2
			{
				OFFSET 0.001457 0.052922 0.025425
				CHANNELS 3 Zrotation Yrotation Xrotation
				JOINT Neck
				{
					OFFSET -0.002778 0.213870 -0.042857
					CHANNELS 3 Zrotation Yrotation Xrotation
					JOINT Head
					{
						OFFSET 0.005152 0.064970 0.051349
						CHANNELS 3 Zrotation Yrotation Xrotation
						End Site
						{
							OFFSET 0.000000 0.000000 0.000000
						}
					}
				}
				JOINT LeftShoulder
				{
					OFFSET 0.078845 0.121749 -0.034090
					CHANNELS 3 Zrotation Yrotation Xrotation
					JOINT LeftArm
					{
						OFFSET 0.090977 0.030469 -0.008868
						CHANNELS 3 Zrotation Yrotation Xrotation
						JOINT LeftForeArm
						{
							OFFSET 0.259612 -0.012772 -0.027456
							CHANNELS 3 Zrotation Yrotation Xrotation
							JOINT LeftHand
							{
								OFFSET 0.249234 0.008986 -0.001171
								CHANNELS 3 Zrotation Yrotation Xrotation
								End Site
								{
									OFFSET 0.000000 0.000000 0.000000
								}
							}
						}
					}
				}
				JOINT RightShoulder
				{
					OFFSET -0.081759 0.118833 -0.038615
					CHANNELS 3 Zrotation Yrotation Xrotation
					JOINT RightArm
					{
						OFFSET -0.096012 0.032551 -0.009143
						CHANNELS 3 Zrotation Yrotation Xrotation
						JOINT RightForeArm
						{
							OFFSET -0.253742 -0.013329 -0.021401
							CHANNELS 3 Zrotation Yrotation Xrotation
							JOINT RightHand
							{
								OFFSET -0.255298 0.007772 -0.005559
								CHANNELS 3 Zrotation Yrotation Xrotation
								End Site
								{
									OFFSET 0.000000 0.000000 0.000000
								}
							}
						}
					}
				}
			}
		}
	}
}
MOTION
Frames: 17
Frame Time: 0.050000
0.000000 0.843583 0.000000 -3.491478 -4.624236 10.133857 8.892360 0.324292 -48.264530 -9.249422 4.540881 46.832558 8.280552 16.751809 -7.143739 0.000000 0.000000 0.000000 -12.576154 0.927486 -38.148443 19.100150 -10.523678 64.536271 -11.334512 -26.838162 5.855550 0.000000 0.000000 0.000000 -9.192356 2.718881 40.173533 7.503655 -1.021606 -25.088398 -0.078683 3.139247 27.665539 -5.847283 4.675335 -43.480442 0.000000 0.000000 0.000000 -32.114555 -20.288436 11.943811 -39.771635 -28.939737 2.374543 -2.722281 -36.121202 2.700045 0.000000 0.000000 0.000000 22.307614 23.452590 13.123056 48.825472 21.048336 1.333023 -1.004880 40.429066 1.701599 0.000000 0.000000 0.000000 
0.002379 0.846109 0.021840 -4.865771 -3.274586 11.139263 9.850045 0.434098 -48.355047 -7.591170 3.478297 48.793148 6.059956 11.501952 -6.990456 0.000000 0.000000 0.000000 -14.257251 0.266246 -40.873694 21.293262 -12.169513 60.976829 -10.769018 -25.567144 7.223248 0.000000 0.000000 0.000000 -7.852494 1.857857 38.580110 7.606158 -1.111401 -24.106388 -0.186223 2.276072 26.894261 -8.985692 5.586171 -46.558207 0.000000 0.000000 0.000000 -33.595236 -16.951405 9.900029 -38.447740 -28.560076 2.040386 -11.676709 -40.966162 6.606726 0.000000 0.000000 0.000000 23.653196 23.964471 13.642152 47.342999 18.744296 0.432964 -0.869821 44.516797 1.948904 0.000000 0.000000 0.000000 
0.002907 0.851700 0.042380 -4.710410 -1.329810 10.766146 9.554056 -0.189358 -46.704251 -7.909550 3.189337 47.673900 6.942374 13.590837 -7.315940 0.000000 0.000000 0.000000 -15.590274 -0.540017 -40.925412 20.613908 -11.627215 57.145596 -10.351709 -24.771346 6.363705 0.000000 0.000000 0.000000 -7.002552 1.175902 37.361108 7.628456 -1.179613 -23.251042 0.854974 3.506454 25.627666 -10.433331 6.599632 -42.283798 0.000000 0.000000 0.000000 -36.946967 -19.015535 10.610781 -36.389550 -27.093483 1.838983 -15.497156 -41.851008 8.006946 0.000000 0.000000 0.000000 22.667326 23.261284 13.640037 47.403789 18.154687 0.186124 -4.352595 42.434067 0.615365 0.000000 0.000000 0.000000 
0.001347 0.856687 0.060655 -5.492731 -0.475554 10.572946 9.946241 -0.215980 -45.864045 -7.109299 2.587584 48.365618 6.086048 11.211929 -8.490962 0.000000 0.000000 0.000000 -16.359353 -1.001423 -41.987795 19.545739 -10.172852 52.012530 -11.160368 -26.207961 7.415502 0.000000 0.000000 0.000000 -7.241211 1.123070 37.000498 8.345825 -1.315846 -23.442534 1.466839 4.517398 25.436811 -11.623369 7.121156 -42.964214 0.000000 0.000000 0.000000 -35.908647 -17.702389 8.704221 -39.781595 -27.002781 2.427031 -20.247244 -45.383658 10.787864 0.000000 0.000000 0.000000 23.301926 22.811327 13.985137 46.201256 16.943412 -0.450283 -5.920785 42.771155 0.107377 0.000000 0.000000 0.000000 
-0.002377 0.860384 0.076923 -5.904409 0.263230 10.612302 10.282499 -0.243325 -44.927419 -7.184830 2.498934 48.730724 6.321178 11.703701 -8.896546 0.000000 0.000000 0.000000 -16.534588 -1.178189 -41.477441 17.108877 -8.002873 46.927992 -10.306700 -24.533433 7.558298 0.000000 0.000000 0.000000 -6.802140 0.836513 36.277659 7.733240 -1.161181 -23.533891 2.340591 5.280135 25.796487 -11.932921 7.536270 -41.132385 0.000000 0.000000 0.000000 -36.377498 -17.731977 8.172479 -39.757414 -25.851455 2.202995 -24.552831 -49.832603 13.991445 0.000000 0.000000 0.000000 24.485480 22.430120 14.438712 44.367826 17.261140 -0.579403 -7.611589 41.673386 -0.489760 0.000000 0.000000 0.000000 
-0.007959 0.860332 0.091559 -5.865953 1.102437 10.767586 10.979842 -0.159385 -44.537295 -7.712507 2.694060 49.775820 5.742951 9.896045 -9.949455 0.000000 0.000000 0.000000 -17.545605 -1.696502 -41.593102 15.080265 -6.541229 43.320290 -9.932546 -23.744882 7.663088 0.000000 0.000000 0.000000 -6.062319 0.455811 36.270832 6.882954 -0.804621 -25.200014 2.996274 5.481246 26.597473 -14.190283 8.442044 -41.560651 0.000000 0.000000 0.000000 -36.543740 -17.136048 7.415920 -40.028982 -24.964879 1.969288 -30.564574 -52.478023 17.947378 0.000000 0.000000 0.000000 25.759901 22.120427 14.840592 42.736270 16.622253 -1.050707 -9.796164 41.157766 -1.241262 0.000000 0.000000 0.000000 
-0.015264 0.859660 0.104953 -5.851226 1.314608 11.437964 12.187645 0.240361 -44.631840 -8.025355 2.873025 49.791038 5.496352 8.660446 -11.795795 0.000000 0.000000 0.000000 -18.381964 -2.051405 -42.161038 12.793151 -4.977726 39.829547 -8.882380 -21.619893 9.307975 0.000000 0.000000 0.000000 -5.833913 0.357419 35.498702 6.544084 -0.646999 -26.145908 3.586750 6.436821 27.053079 -14.511217 8.816631 -40.275126 0.000000 0.000000 0.000000 -35.353044 -16.307963 6.171812 -41.975495 -24.613912 2.137349 -34.689951 -53.975084 20.699400 0.000000 0.000000 0.000000 26.834690 22.196289 15.683546 41.874209 17.107349 -1.102854 -13.209779 39.260747 -2.271338 0.000000 0.000000 0.000000 
-0.024046 0.856812 0.116871 -5.137388 2.256251 12.215562 12.307597 0.076969 -45.554782 -8.377659 2.947953 50.880019 5.538794 8.502728 -12.541637 0.000000 0.000000 0.000000 -19.522639 -2.658252 -42.291977 11.390671 -4.251423 37.746152 -7.916522 -19.670299 10.707578 0.000000 0.000000 0.000000 -5.289414 0.058603 35.645985 6.195959 -0.482886 -27.003669 3.439005 6.586279 26.758696 -14.516267 8.927902 -39.847113 0.000000 0.000000 0.000000 -35.866213 -15.970666 5.594127 -41.605641 -23.800776 1.945563 -36.301242 -53.798280 21.413956 0.000000 0.000000 0.000000 28.520884 22.143574 16.404562 39.689635 17.643620 -1.125457 -14.782555 36.930487 -2.672282 0.000000 0.000000 0.000000 
-0.034436 0.854038 0.126981 -4.186400 2.600156 12.499994 12.318725 -0.013516 -45.853346 -8.528692 2.982070 51.285489 5.629504 8.885613 -12.178361 0.000000 0.000000 0.000000 -20.286123 -2.992599 -42.047509 11.211848 -4.285986 38.238880 -7.264677 -18.404720 10.255232 0.000000 0.000000 0.000000 -4.941621 -0.111676 35.963826 5.076297 -0.300573 -26.322007 3.519055 6.600179 25.146817 -13.897590 8.846889 -37.985605 0.000000 0.000000 0.000000 -36.386837 -16.634394 5.971760 -41.402840 -23.811114 2.127237 -30.029341 -52.702843 17.494103 0.000000 0.000000 0.000000 28.507434 22.720425 16.800738 39.841635 18.170010 -0.812136 -16.313282 35.199769 -2.998746 0.000000 0.000000 0.000000 
-0.046212 0.852372 0.135027 -3.497591 3.003300 12.909012 12.444846 -0.073476 -45.993758 -8.355537 2.810551 51.732429 5.398117 8.127817 -12.414396 0.000000 0.000000 0.000000 -20.663704 -3.270759 -42.452394 11.147719 -4.446668 39.389572 -7.051573 -17.963342 10.222056 0.000000 0.000000 0.000000 -4.434628 -0.353093 36.464755 4.794573 -0.231874 -26.283061 3.503093 6.804250 24.899662 -14.057285 8.904516 -38.240957 0.000000 0.000000 0.000000 -36.667417 -16.854013 5.922574 -41.052639 -23.784069 2.180609 -25.163590 -52.366577 14.793040 0.000000 0.000000 0.000000 28.719858 23.157567 17.330464 39.171666 19.114162 -0.564546 -17.923066 34.329351 -3.372281 0.000000 0.000000 0.000000 
-0.059634 0.852710 0.141416 -3.016060 2.414779 13.559887 13.458100 0.414017 -45.590637 -8.598808 3.050282 49.931872 5.389123 8.008142 -12.870198 0.000000 0.000000 0.000000 -21.213006 -3.326806 -42.625436 11.923946 -4.732444 39.199669 -7.750743 -19.374281 9.888772 0.000000 0.000000 0.000000 -4.122776 -0.399189 36.983642 4.484300 -0.197307 -25.916003 3.631250 7.005310 24.436950 -13.789940 8.723790 -38.332024 0.000000 0.000000 0.000000 -37.273345 -16.923360 6.027528 -40.311954 -23.975522 2.219031 -20.303504 -51.103501 12.001325 0.000000 0.000000 0.000000 27.600574 23.579088 17.210598 39.046454 19.525990 -0.318336 -17.692519 33.706795 -3.269173 0.000000 0.000000 0.000000 
-0.074997 0.855110 0.146609 -2.044007 2.755448 14.594369 14.233968 0.582311 -45.335767 -8.735949 2.964336 47.375015 4.819209 6.853466 -11.653405 0.000000 0.000000 0.000000 -21.476626 -3.559369 -43.183771 12.351736 -5.145789 40.221773 -7.924193 -19.728951 8.358721 0.000000 0.000000 0.000000 -3.662411 -0.621653 37.333411 5.063447 -0.285709 -26.060067 3.081264 6.501640 23.969419 -14.580122 8.937705 -38.374063 0.000000 0.000000 0.000000 -37.954467 -16.480063 5.869414 -39.484458 -23.456033 1.974055 -19.035960 -49.224005 10.946432 0.000000 0.000000 0.000000 27.336391 23.669812 17.073562 38.912838 19.596033 -0.212358 -17.794848 34.697192 -3.421047 0.000000 0.000000 0.000000 
-0.093032 0.857823 0.151099 -1.325160 2.662666 15.252520 14.889029 0.790262 -44.634427 -9.494154 3.260808 44.361757 4.791517 7.026667 -11.140607 0.000000 0.000000 0.000000 -21.304910 -3.507524 -43.526028 12.683167 -5.427581 41.169530 -8.205644 -20.357314 7.154549 0.000000 0.000000 0.000000 -3.301447 -0.774123 38.248151 5.181272 -0.329747 -25.644390 2.965980 6.054178 23.103312 -14.320758 8.570608 -39.471021 0.000000 0.000000 0.000000 -38.175359 -16.108850 5.851099 -39.133049 -22.947907 1.785297 -18.280905 -47.419243 10.189167 0.000000 0.000000 0.000000 26.633387 23.929214 16.812283 39.280464 19.877569 0.067776 -18.161734 35.291500 -3.601378 0.000000 0.000000 0.000000 
-0.114021 0.859180 0.154894 -0.467296 2.730549 16.165327 16.085760 1.120348 -43.760976 -9.937107 3.295163 40.843249 4.889441 8.074725 -9.214990 0.000000 0.000000 0.000000 -20.948060 -3.513045 -44.569569 13.191800 -5.862563 42.251172 -8.759021 -21.635396 5.083265 0.000000 0.000000 0.000000 -2.765860 -1.014398 38.688188 5.574974 -0.345388 -26.314679 2.761066 5.455768 23.507197 -15.327121 8.765392 -40.358248 0.000000 0.000000 0.000000 -38.224466 -15.869500 6.018920 -38.524788 -22.008792 1.313003 -19.738576 -46.608038 10.693426 0.000000 0.000000 0.000000 26.074803 23.905860 16.444334 39.662704 20.162535 0.225121 -17.838527 36.094096 -3.595956 0.000000 0.000000 0.000000 
-0.138057 0.858067 0.158461 0.184883 2.560154 16.451910 16.942334 1.397615 -43.182503 -10.148162 3.316346 38.890039 5.371546 9.703762 -8.251294 0.000000 0.000000 0.000000 -20.231679 -3.306476 -45.394398 13.428281 -6.169401 43.894398 -9.606273 -23.534928 4.190652 0.000000 0.000000 0.000000 -2.286332 -1.211463 39.366732 5.645219 -0.379391 -26.015048 2.787829 5.199891 23.268981 -15.581806 8.777309 -40.499155 0.000000 0.000000 0.000000 -38.232652 -15.244748 5.715711 -38.139847 -20.631848 0.836199 -22.396638 -46.942674 11.980115 0.000000 0.000000 0.000000 24.806239 23.738325 15.800025 40.321551 20.488774 0.484402 -17.938961 37.790031 -3.805797 0.000000 0.000000 0.000000 
-0.164957 0.854732 0.161884 1.155465 2.415563 16.088154 18.185142 1.756358 -42.011902 -10.014821 3.204279 37.701400 5.710781 11.203243 -5.859840 0.000000 0.000000 0.000000 -19.606343 -3.169607 -46.232401 13.631487 -6.623320 46.692968 -9.942459 -24.283827 3.674327 0.000000 0.000000 0.000000 -1.801309 -1.430273 40.217499 6.319753 -0.482125 -26.461952 2.553899 4.982579 23.824601 -14.747580 8.370887 -41.464302 0.000000 0.000000 0.000000 -38.340402 -14.793536 5.520619 -38.062373 -19.369216 0.376419 -24.457869 -47.361271 13.055103 0.000000 0.000000 0.000000 23.629925 23.944520 15.456149 40.442910 20.967789 0.683802 -17.351562 38.313293 -3.707032 0.000000 0.000000 0.000000 
-0.194109 0.849148 0.165045 2.030328 2.031699 15.416891 20.101408 2.389792 -41.076044 -10.580428 3.526002 37.503309 5.788363 11.983881 -3.097200 0.000000 0.000000 0.000000 -19.007733 -2.949449 -46.914542 14.166824 -7.212593 49.377214 -10.653123 -26.100831 1.654387 0.000000 0.000000 0.000000 -0.874693 -1.801351 41.026735 5.716571 -0.362702 -26.636983 2.763353 4.801309 23.986098 -14.502028 8.218457 -42.025871 0.000000 0.000000 0.000000 -38.600343 -14.698719 5.673022 -37.767921 -18.095450 -0.075981 -25.982955 -47.853190 13.925642 0.000000 0.000000 0.000000 22.688519 23.802108 14.915471 40.798136 21.105756 0.807294 -16.226667 38.839688 -3.429894 0.000000 0.000000 0.000000 
